# xmcd
#
# Track frame offsets: 
#        150
#        23237
#        42325
#        67942
#        88285
#        104022
#        131675
#        149387
#        168197
#        174737
#        197877
#
# Disc length: 2849 seconds
#
# Revision: 3
# Processed by: cddbd v1.5.2PL0 Copyright (c) Steve Scherf et al.
# Submitted via: ExactAudioCopy v0.99pb3
#
DISCID=a00b1f0b
DTITLE=Bo Diddley, Muddy Waters, Little Walter - Super Blues
DYEAR=1967
DGENRE=Blues
TTITLE0=Long Distance Call
TTITLE1=Who Do You Love?
TTITLE2=I'm A Man
TTITLE3=Bo Diddley
TTITLE4=You Can't Judge A Book By Its Cover
TTITLE5=I Just Want To Make Love To You
TTITLE6=My Babe
TTITLE7=You Don't Love Me
TTITLE8=Studio Chatter
TTITLE9=Sad Hours
TTITLE10=Juke
EXTD=
EXTT0=
EXTT1=
EXTT2=
EXTT3=
EXTT4=
EXTT5=
EXTT6=
EXTT7=
EXTT8=
EXTT9=
EXTT10=
PLAYORDER=
